<?xml version="1.0" encoding="utf-8"?>
<!-- Generator: Adobe Illustrator 16.0.0, SVG Export Plug-In . SVG Version: 6.00 Build 0)  -->
<!DOCTYPE svg PUBLIC "-//W3C//DTD SVG 1.1//EN" "http://www.w3.org/Graphics/SVG/1.1/DTD/svg11.dtd">
<svg version="1.1" id="Layer_1" xmlns="http://www.w3.org/2000/svg" xmlns:xlink="http://www.w3.org/1999/xlink" x="0px" y="0px"
	 width="512px" height="512px" viewBox="0 0 512 512" enable-background="new 0 0 512 512" xml:space="preserve">
<g>
	<linearGradient id="SVGID_1_" gradientUnits="userSpaceOnUse" x1="438.5645" y1="242.8628" x2="155.0112" y2="242.8628">
		<stop  offset="0.1034" style="stop-color:#F5999F"/>
		<stop  offset="0.2221" style="stop-color:#F1989F"/>
		<stop  offset="0.3522" style="stop-color:#E3949E"/>
		<stop  offset="0.4878" style="stop-color:#CD8F9D"/>
		<stop  offset="0.6271" style="stop-color:#AF879C"/>
		<stop  offset="0.768" style="stop-color:#887D9A"/>
		<stop  offset="0.7991" style="stop-color:#7E7A9A"/>
	</linearGradient>
	<path fill="url(#SVGID_1_)" d="M393.569,329.584c2.756,7.128,4.207,14.601,4.207,22.268c0,24.021-14.287,45.884-37.662,62.222
		l-7.877,5.092c-10.377,6.199-22.193,11.426-35.086,15.41c-0.51,0.163-1.02,0.329-1.543,0.478c-0.523,0.151-1.049,0.3-1.572,0.466
		c-0.42,0.119-0.838,0.239-1.273,0.357c-0.525,0.151-1.049,0.3-1.572,0.435c-0.539,0.15-1.078,0.3-1.617,0.45
		c-1.02,0.27-2.066,0.539-3.115,0.793c-15.68,3.864-32.689,5.976-50.451,5.976c-38.366,0-73.168-9.854-98.686-25.847l-3.129-2.037
		c-24.754-16.487-39.969-38.995-39.969-63.794c0-7.667,1.467-15.14,4.223-22.268c6.11-15.89,18.659-30.131,35.746-41.527
		l3.129-2.021c2.231-1.408,29.531,21.085,29.531,21.085c-17.596,12.698-28.663,27.255-28.663,44.73
		c0,17.477,10.947,33.289,28.663,44.731c8.791,5.69,19.228,10.288,30.849,13.507c0.779,0.21,1.557,0.405,2.351,0.614
		c1.288,0.329,2.576,0.629,3.864,0.914c5.72,1.303,11.68,2.246,17.82,2.814c1.333,0.135,2.681,0.255,4.043,0.329
		c0.524,0.046,1.048,0.09,1.572,0.105c0.239,0.015,0.479,0.029,0.719,0.044c0.404,0.031,0.794,0.031,1.214,0.046
		c0.299,0.015,0.598,0.03,0.912,0.045c0.539,0.029,1.08,0.045,1.617,0.06c1.393,0.029,2.785,0.061,4.193,0.061
		c1.363,0,2.74-0.031,4.104-0.061c0.645-0.015,1.273-0.03,1.902-0.06c0.135-0.015,0.24-0.015,0.375-0.015
		c0.598-0.03,1.213-0.045,1.811-0.091c10.078-0.538,19.723-2.066,28.691-4.433c0.766-0.194,1.529-0.403,2.277-0.614
		c4.928-1.392,9.629-3.039,14.076-4.91c0,0,0.24,0,0.674,0.029c3.984,0.225,24.381,1.991,26.627,14.601
		c0,0,2.066-16.428-4.09-25.607c-0.357-0.568-0.777-1.123-1.227-1.632c14.137-10.962,22.643-25.083,22.643-40.479
		c0-16.203-9.42-30.984-24.92-42.17c-2.41-1.752-4.971-3.415-7.682-4.973c0,0-68.734-44.071-69.02-44.071l-27.54-17.805l0.135-0.076
		l-58.883-38.066l-19.498-12.624c-13.148-10.333-22.867-22.553-28.033-35.94c-2.741-7.128-4.208-14.586-4.208-22.269
		c0-24.02,14.286-45.869,37.677-62.221l7.862-5.091c10.363-6.2,22.193-11.412,35.087-15.41c0.509-0.15,1.033-0.314,1.527-0.479
		c0.539-0.149,1.063-0.299,1.587-0.449c0.419-0.134,0.839-0.254,1.258-0.36c0.54-0.164,1.063-0.314,1.587-0.449
		c0.539-0.15,1.063-0.3,1.602-0.435c1.034-0.27,2.082-0.539,3.13-0.809c15.679-3.848,32.691-5.96,50.466-5.96
		c38.352,0,73.154,9.854,98.672,25.848l3.129,2.021c24.738,16.502,39.969,38.995,39.969,63.794c0,7.682-1.451,15.141-4.207,22.269
		c-6.125,15.888-18.674,30.145-35.762,41.526l-32.645-19.063c17.58-12.699,28.646-27.255,28.646-44.731
		c0-17.46-10.947-33.29-28.646-44.731c-9.391-6.064-20.666-10.901-33.217-14.121c-0.656-0.164-1.316-0.314-1.975-0.479
		c-0.615-0.149-1.258-0.299-1.887-0.434c-5.092-1.153-10.363-2.037-15.801-2.606c-0.658-0.09-1.332-0.165-2.006-0.21
		c-1.348-0.134-2.697-0.239-4.059-0.329c-0.494-0.03-1.002-0.075-1.496-0.105c-0.271-0.015-0.541-0.03-0.795-0.045
		c-0.404-0.015-0.793-0.03-1.184-0.044c-0.314-0.016-0.643-0.03-0.973-0.045c-0.508-0.015-1.018-0.03-1.543-0.044
		c-1.408-0.045-2.814-0.06-4.223-0.06c-1.377,0-2.738,0.015-4.102,0.06c-0.676,0.015-1.334,0.03-1.992,0.06
		c-0.062,0-0.105,0-0.15,0.014c-0.659,0.016-1.303,0.045-1.963,0.075c-0.629,0.045-1.257,0.075-1.886,0.12
		c-9.39,0.614-18.39,2.082-26.821,4.328c-0.763,0.194-1.512,0.404-2.276,0.614c-11.276,3.174-21.444,7.712-30.025,13.252
		c-17.73,11.441-28.677,27.271-28.677,44.731c0,16.218,9.434,30.999,24.934,42.185c2.411,1.737,4.972,3.399,7.697,4.972
		c0,0,68.675,44.057,68.99,44.057l27.555,17.805l-0.135,0.091l58.867,38.066l19.514,12.624
		C378.683,303.977,388.401,316.195,393.569,329.584z"/>
	
		<linearGradient id="SVGID_2_" gradientUnits="userSpaceOnUse" x1="65.7759" y1="369.8398" x2="170.3283" y2="369.8398" gradientTransform="matrix(0 1 1 0 -27.084 27.0854)">
		<stop  offset="0.2849" style="stop-color:#7E7A9A"/>
		<stop  offset="0.374" style="stop-color:#837B9A"/>
		<stop  offset="0.4772" style="stop-color:#917F9B"/>
		<stop  offset="0.5876" style="stop-color:#A8859C"/>
		<stop  offset="0.7028" style="stop-color:#C98D9D"/>
		<stop  offset="0.8209" style="stop-color:#F2989F"/>
		<stop  offset="0.8285" style="stop-color:#F5999F"/>
	</linearGradient>
	<path fill="url(#SVGID_2_)" d="M357.802,197.659c17.092-11.391,29.646-25.643,35.762-41.535
		c-21.791-40.383-58.318-70.299-101.615-81.114c12.555,3.216,23.826,8.05,33.215,14.119c17.695,11.443,28.648,27.263,28.648,44.729
		c0,17.476-11.066,32.038-28.648,44.738L357.802,197.659z"/>
	<linearGradient id="SVGID_3_" gradientUnits="userSpaceOnUse" x1="294.4961" y1="409.0313" x2="310.6749" y2="405.598">
		<stop  offset="0.2886" style="stop-color:#F5999F"/>
		<stop  offset="0.3614" style="stop-color:#EC979F"/>
		<stop  offset="0.481" style="stop-color:#D3909E"/>
		<stop  offset="0.6317" style="stop-color:#AB869C"/>
		<stop  offset="0.7763" style="stop-color:#7E7A9A"/>
	</linearGradient>
	<path fill="url(#SVGID_3_)" d="M309.243,404.939c0,0,0.24,0,0.674,0.029c-4.807,1.886-9.734,3.519-14.75,4.881
		C300.095,408.458,304.796,406.811,309.243,404.939z"/>
	<linearGradient id="SVGID_4_" gradientUnits="userSpaceOnUse" x1="133.9795" y1="264.7666" x2="378.2355" y2="212.9335">
		<stop  offset="0.2886" style="stop-color:#F5999F"/>
		<stop  offset="0.3614" style="stop-color:#EC979F"/>
		<stop  offset="0.481" style="stop-color:#D3909E"/>
		<stop  offset="0.6317" style="stop-color:#AB869C"/>
		<stop  offset="0.7763" style="stop-color:#7E7A9A"/>
	</linearGradient>
	<path fill="url(#SVGID_4_)" d="M393.569,329.584c-14.572,27-35.732,49.343-61.115,64.378c-0.357-0.568-0.777-1.123-1.227-1.632
		c14.137-10.962,22.643-25.083,22.643-40.479c0-16.203-9.42-30.984-24.92-42.17c-2.41-1.752-4.971-3.415-7.682-4.973
		c0,0-68.734-44.071-69.02-44.071l-27.54-17.805l0.135-0.076l-58.883-38.066l-19.498-12.624
		c-13.148-10.333-22.867-22.553-28.033-35.94c21.234-39.37,56.501-68.796,98.386-80.251c-11.276,3.174-21.444,7.712-30.025,13.252
		c-17.73,11.441-28.677,27.271-28.677,44.731c0,16.218,9.434,30.999,24.934,42.185c2.411,1.737,4.972,3.399,7.697,4.972
		c0,0,68.675,44.057,68.99,44.057l27.555,17.805l-0.135,0.091l58.867,38.066l19.514,12.624
		C378.683,303.977,388.401,316.195,393.569,329.584z"/>
	
		<linearGradient id="SVGID_5_" gradientUnits="userSpaceOnUse" x1="245.7363" y1="196.3291" x2="350.1778" y2="196.3291" gradientTransform="matrix(0 1 1 0 -27.084 27.0854)">
		<stop  offset="0.2419" style="stop-color:#7E7A9A"/>
		<stop  offset="0.2817" style="stop-color:#887D9A"/>
		<stop  offset="0.4799" style="stop-color:#B7899C"/>
		<stop  offset="0.6556" style="stop-color:#D9929E"/>
		<stop  offset="0.8005" style="stop-color:#EE979F"/>
		<stop  offset="0.8966" style="stop-color:#F5999F"/>
	</linearGradient>
	<path fill="url(#SVGID_5_)" d="M157.315,286.03l-3.122,2.026c-17.092,11.391-29.634,25.637-35.75,41.528
		c21.779,40.382,58.319,70.306,101.604,81.119c-12.554-3.215-23.826-8.05-33.201-14.118c-17.71-11.442-28.663-27.261-28.663-44.729
		c0-17.476,11.067-32.038,28.663-44.738C186.846,307.119,159.555,284.634,157.315,286.03z"/>
	<circle fill="#7E7A9A" cx="213.75" cy="357.321" r="10.791"/>
	<circle fill="#7E7A9A" cx="256.18" cy="357.321" r="10.79"/>
	<circle fill="#7E7A9A" cx="296.441" cy="357.321" r="10.79"/>
</g>
</svg>
